<svg width="30" height="25" viewBox="0 0 30 25" fill="none" xmlns="http://www.w3.org/2000/svg">
<path d="M0.554688 17.5007C0.554688 17.7466 0.739092 17.9925 1.04643 17.9925H14.8768C15.1226 13.8126 18.5649 10.4934 22.8062 10.4934C23.5438 10.4934 24.2814 10.6163 24.9575 10.8007V8.28052H0.554688V17.5007Z" fill="#00C79E"/>
<path d="M24.4658 0.96582H1.04643C0.80056 0.96582 0.554688 1.15022 0.554688 1.45757V4.89978H24.9575V1.3961C24.9575 1.15022 24.7117 0.96582 24.4658 0.96582Z" fill="#00C79E"/>
<path d="M22.8026 11.7229C19.1145 11.7229 16.1641 14.7348 16.1641 18.3615C16.1641 22.0495 19.176 25 22.8026 25C26.4907 25 29.4412 21.9881 29.4412 18.3615C29.4412 14.7348 26.4292 11.7229 22.8026 11.7229ZM26.4292 16.9477L21.143 20.9431C21.02 21.0046 20.8971 21.0661 20.7742 21.0661C20.7127 21.0661 20.6512 21.0661 20.6512 21.0661C20.4668 21.0046 20.2824 20.8817 20.221 20.6972L18.9301 18.1156C18.7457 17.8082 18.9301 17.4394 19.2375 17.255C19.5448 17.0706 19.9136 17.255 20.098 17.5624L21.02 19.4679L25.6916 15.9027C25.999 15.7183 26.3678 15.7183 26.6136 16.0257C26.7981 16.2715 26.7366 16.7018 26.4292 16.9477Z" fill="#00C79E"/>
</svg>
