<svg width="24" height="24" viewBox="0 0 24 24" fill="none" xmlns="http://www.w3.org/2000/svg">
<path d="M2.10938 0C0.946266 0 0 0.946266 0 2.10938V10.6875H10.6875V0H2.10938ZM6.98438 6.04688H6.04688V6.98438C6.04688 7.37269 5.73206 7.6875 5.34375 7.6875C4.95544 7.6875 4.64062 7.37269 4.64062 6.98438V6.04688H3.70312C3.31481 6.04688 3 5.73206 3 5.34375C3 4.95544 3.31481 4.64062 3.70312 4.64062H4.64062V3.70312C4.64062 3.31481 4.95544 3 5.34375 3C5.73206 3 6.04688 3.31481 6.04688 3.70312V4.64062H6.98438C7.37269 4.64062 7.6875 4.95544 7.6875 5.34375C7.6875 5.73206 7.37269 6.04688 6.98438 6.04688Z" fill="#00C79E"/>
<path d="M22.3985 10.6875H22.7812V2.10938C22.7812 0.946266 21.835 0 20.6719 0H12.0938V10.4339C13.4853 9.38695 15.2144 8.76562 17.0859 8.76562C19.104 8.76562 20.9563 9.48802 22.3985 10.6875ZM15.0938 5.34375C15.0938 4.95544 15.4086 4.64062 15.7969 4.64062H19.0781C19.4664 4.64062 19.7812 4.95544 19.7812 5.34375C19.7812 5.73206 19.4664 6.04688 19.0781 6.04688H15.7969C15.4086 6.04688 15.0938 5.73206 15.0938 5.34375Z" fill="#00C79E"/>
<path d="M10.4339 12.0938H0V20.6719C0 21.835 0.946266 22.7812 2.10938 22.7812H10.6875V22.3985C9.48802 20.9563 8.76562 19.104 8.76562 17.0859C8.76562 15.2144 9.38695 13.4853 10.4339 12.0938ZM7.01278 18.1122C7.28737 18.3868 7.28737 18.832 7.01278 19.1066C6.87553 19.2439 6.69558 19.3125 6.51562 19.3125C6.33567 19.3125 6.15572 19.2439 6.01847 19.1065L5.34375 18.4319L4.66903 19.1066C4.53178 19.2439 4.35183 19.3125 4.17188 19.3125C3.99192 19.3125 3.81197 19.2439 3.67472 19.1065C3.40012 18.8319 3.40012 18.3868 3.67472 18.1122L4.34939 17.4375L3.67467 16.7628C3.40008 16.4882 3.40008 16.043 3.67467 15.7684C3.94922 15.4938 4.39444 15.4938 4.66903 15.7684L5.34375 16.4431L6.01847 15.7684C6.29302 15.4938 6.73823 15.4938 7.01283 15.7684C7.28742 16.043 7.28742 16.4882 7.01283 16.7628L6.33811 17.4375L7.01278 18.1122Z" fill="#00C79E"/>
<path d="M17.0859 10.1719C13.2735 10.1719 10.1719 13.2735 10.1719 17.0859C10.1719 20.8984 13.2735 24 17.0859 24C20.8984 24 24 20.8984 24 17.0859C24 13.2735 20.8984 10.1719 17.0859 10.1719ZM18.7266 18.9609H15.4453C15.057 18.9609 14.7422 18.6461 14.7422 18.2578C14.7422 17.8695 15.057 17.5547 15.4453 17.5547H18.7266C19.1149 17.5547 19.4297 17.8695 19.4297 18.2578C19.4297 18.6461 19.1149 18.9609 18.7266 18.9609ZM18.7266 16.6172H15.4453C15.057 16.6172 14.7422 16.3024 14.7422 15.9141C14.7422 15.5258 15.057 15.2109 15.4453 15.2109H18.7266C19.1149 15.2109 19.4297 15.5258 19.4297 15.9141C19.4297 16.3024 19.1149 16.6172 18.7266 16.6172Z" fill="#00C79E"/>
</svg>
