<svg width="24" height="22" viewBox="0 0 24 22" fill="none" xmlns="http://www.w3.org/2000/svg">
<path d="M24 17.1429V19.2857C24 20.4677 23.0383 21.4286 21.8571 21.4286H3.42857C1.53771 21.4286 0 19.8909 0 18C0 18 0 3.44143 0 3.42857C0 1.53771 1.53771 0 3.42857 0H19.2857C19.9963 0 20.5714 0.576 20.5714 1.28571C20.5714 1.99543 19.9963 2.57143 19.2857 2.57143H3.42857C2.95629 2.57143 2.57143 2.95543 2.57143 3.42857C2.57143 3.90171 2.95629 4.28571 3.42857 4.28571H21.8571C23.0383 4.28571 24 5.24657 24 6.42857V8.57143H19.7143C17.3511 8.57143 15.4286 10.494 15.4286 12.8571C15.4286 15.2203 17.3511 17.1429 19.7143 17.1429H24Z" fill="#00C79E"/>
</svg>
