<svg width="23" height="24" viewBox="0 0 23 24" fill="none" xmlns="http://www.w3.org/2000/svg">
<path fill-rule="evenodd" clip-rule="evenodd" d="M0 12.8982C0 12.3459 0.447715 11.8982 1 11.8982H3.05481C3.60709 11.8982 4.05481 12.3459 4.05481 12.8982V22.9995C4.05481 23.5518 3.60709 23.9995 3.05481 23.9995H1C0.447715 23.9995 0 23.5518 0 22.9995V12.8982Z" fill="#00C79E"/>
<path fill-rule="evenodd" clip-rule="evenodd" d="M6.08203 7.89331C6.08203 7.34103 6.52975 6.89331 7.08203 6.89331H9.13684C9.68912 6.89331 10.1368 7.34103 10.1368 7.89331V23C10.1368 23.5523 9.68913 24 9.13684 24H7.08203C6.52975 24 6.08203 23.5523 6.08203 23V7.89331Z" fill="#00C79E"/>
<path fill-rule="evenodd" clip-rule="evenodd" d="M12.1641 12.8982C12.1641 12.3459 12.6118 11.8982 13.1641 11.8982H15.2189C15.7712 11.8982 16.2189 12.3459 16.2189 12.8982V22.9995C16.2189 23.5518 15.7712 23.9995 15.2189 23.9995H13.1641C12.6118 23.9995 12.1641 23.5518 12.1641 22.9995V12.8982Z" fill="#00C79E"/>
<path fill-rule="evenodd" clip-rule="evenodd" d="M18.2461 7.70288C18.2461 7.15059 18.6938 6.70288 19.2461 6.70288H21.3009C21.8532 6.70288 22.3009 7.1506 22.3009 7.70288V22.9995C22.3009 23.5518 21.8532 23.9995 21.3009 23.9995H19.2461C18.6938 23.9995 18.2461 23.5518 18.2461 22.9995V7.70288Z" fill="#00C79E"/>
<path d="M2.02679 9.11462C3.11164 9.11462 3.99108 8.23517 3.99108 7.15033C3.99108 6.06548 3.11164 5.18604 2.02679 5.18604C0.941943 5.18604 0.0625 6.06548 0.0625 7.15033C0.0625 8.23517 0.941943 9.11462 2.02679 9.11462Z" fill="#00C79E"/>
<path d="M8.10882 4.09191C9.19367 4.09191 10.0731 3.21247 10.0731 2.12762C10.0731 1.04277 9.19367 0.16333 8.10882 0.16333C7.02397 0.16333 6.14453 1.04277 6.14453 2.12762C6.14453 3.21247 7.02397 4.09191 8.10882 4.09191Z" fill="#00C79E"/>
<path d="M14.1909 9.12878C15.2757 9.12878 16.1551 8.24933 16.1551 7.16449C16.1551 6.07964 15.2757 5.2002 14.1909 5.2002C13.106 5.2002 12.2266 6.07964 12.2266 7.16449C12.2266 8.24933 13.106 9.12878 14.1909 9.12878Z" fill="#00C79E"/>
<path d="M20.2729 3.92858C21.3577 3.92858 22.2372 3.04914 22.2372 1.96429C22.2372 0.879443 21.3577 0 20.2729 0C19.188 0 18.3086 0.879443 18.3086 1.96429C18.3086 3.04914 19.188 3.92858 20.2729 3.92858Z" fill="#00C79E"/>
<path d="M2.63281 5.42968L6.45338 2.56934L7.09089 3.41933L3.27032 6.27968L2.63281 5.42968Z" fill="#00C79E"/>
<path d="M9.96089 2.38843L13.345 5.77168L12.595 6.52584L9.21094 3.14259L9.96089 2.38843Z" fill="#00C79E"/>
<path d="M15.1875 5.97049L18.6219 2.53613L19.376 3.29029L15.9417 6.72464L15.1875 5.97049Z" fill="#00C79E"/>
</svg>
